<svg xmlns="http://www.w3.org/2000/svg" width="23.119" height="22.507" viewBox="0 0 23.119 22.507">
  <g id="Group_15" data-name="Group 15" transform="translate(0 0.5)">
    <path id="Path_31" data-name="Path 31" d="M23.1,37.626H.009a9.944,9.944,0,0,1,.407-3.2,11.869,11.869,0,0,1,5.752-7.35.452.452,0,0,1,.627.067,7.035,7.035,0,0,0,9.521.011c.164-.146.288-.276.543-.129a11.909,11.909,0,0,1,6.258,10.212,3.808,3.808,0,0,1-.018.387" transform="translate(0 -15.619)"/>
    <path id="Path_32" data-name="Path 32" d="M20.112,0a5.761,5.761,0,0,1,5.674,5.883,5.793,5.793,0,0,1-5.67,5.856,5.791,5.791,0,0,1-5.7-5.875A5.759,5.759,0,0,1,20.112,0" transform="translate(-8.545 0)" fill="none" stroke="#000" stroke-width="1"/>
    <rect id="Rectangle_31" data-name="Rectangle 31" width="23.119" height="22.007" transform="translate(0 0)" fill="none"/>
  </g>
</svg>
